<?xml version="1.0" encoding="utf-8" standalone="no"?>
<!DOCTYPE svg PUBLIC "-//W3C//DTD SVG 1.1//EN"
  "http://www.w3.org/Graphics/SVG/1.1/DTD/svg11.dtd">
<svg xmlns:xlink="http://www.w3.org/1999/xlink" width="460.8pt" height="216pt" viewBox="0 0 460.8 216" xmlns="http://www.w3.org/2000/svg" version="1.1">
 <metadata>
  <rdf:RDF xmlns:dc="http://purl.org/dc/elements/1.1/" xmlns:cc="http://creativecommons.org/ns#" xmlns:rdf="http://www.w3.org/1999/02/22-rdf-syntax-ns#">
   <cc:Work>
    <dc:type rdf:resource="http://purl.org/dc/dcmitype/StillImage"/>
    <dc:date>2026-09-21T06:30:14.954157</dc:date>
    <dc:format>image/svg+xml</dc:format>
    <dc:creator>
     <cc:Agent>
      <dc:title>Matplotlib v3.11.2, https://matplotlib.org/</dc:title>
     </cc:Agent>
    </dc:creator>
   </cc:Work>
  </rdf:RDF>
 </metadata>
 <defs>
  <style type="text/css">*{stroke-linejoin: round; stroke-linecap: butt}</style>
 </defs>
 <g id="figure_1">
  <g id="patch_1">
   <path d="M 0 216 
L 460.8 216 
L 460.8 0 
L 0 0 
z
" style="fill: #fcfcfb"/>
  </g>
  <g id="axes_1">
   <g id="patch_2">
    <path d="M 49.26 163.857891 
L 423.272727 163.857891 
L 423.272727 45.72 
L 49.26 45.72 
z
" style="fill: #fcfcfb"/>
   </g>
   <g id="matplotlib.axis_1">
    <g id="xtick_1">
     <g id="line2d_1">
      <path d="M 57.037867 163.857891 
L 57.037867 45.72 
" clip-path="url(#pb12011e50e)" style="fill: none; stroke: #e6e5e1; stroke-opacity: 0.9; stroke-width: 0.6; stroke-linecap: square"/>
     </g>
     <g id="line2d_2"/>
     <g id="text_1">
      <text style="font-size: 9px; font-family: 'DejaVu Sans'; text-anchor: middle; fill: #52514e" x="57.037867" y="174.195781" transform="rotate(-0 57.037867 174.195781)">0</text>
     </g>
    </g>
    <g id="xtick_2">
     <g id="line2d_3">
      <path d="M 103.503812 163.857891 
L 103.503812 45.72 
" clip-path="url(#pb12011e50e)" style="fill: none; stroke: #e6e5e1; stroke-opacity: 0.9; stroke-width: 0.6; stroke-linecap: square"/>
     </g>
     <g id="line2d_4"/>
     <g id="text_2">
      <text style="font-size: 9px; font-family: 'DejaVu Sans'; text-anchor: middle; fill: #52514e" x="103.503812" y="174.195781" transform="rotate(-0 103.503812 174.195781)">25</text>
     </g>
    </g>
    <g id="xtick_3">
     <g id="line2d_5">
      <path d="M 149.969757 163.857891 
L 149.969757 45.72 
" clip-path="url(#pb12011e50e)" style="fill: none; stroke: #e6e5e1; stroke-opacity: 0.9; stroke-width: 0.6; stroke-linecap: square"/>
     </g>
     <g id="line2d_6"/>
     <g id="text_3">
      <text style="font-size: 9px; font-family: 'DejaVu Sans'; text-anchor: middle; fill: #52514e" x="149.969757" y="174.195781" transform="rotate(-0 149.969757 174.195781)">50</text>
     </g>
    </g>
    <g id="xtick_4">
     <g id="line2d_7">
      <path d="M 196.435701 163.857891 
L 196.435701 45.72 
" clip-path="url(#pb12011e50e)" style="fill: none; stroke: #e6e5e1; stroke-opacity: 0.9; stroke-width: 0.6; stroke-linecap: square"/>
     </g>
     <g id="line2d_8"/>
     <g id="text_4">
      <text style="font-size: 9px; font-family: 'DejaVu Sans'; text-anchor: middle; fill: #52514e" x="196.435701" y="174.195781" transform="rotate(-0 196.435701 174.195781)">75</text>
     </g>
    </g>
    <g id="xtick_5">
     <g id="line2d_9">
      <path d="M 242.901646 163.857891 
L 242.901646 45.72 
" clip-path="url(#pb12011e50e)" style="fill: none; stroke: #e6e5e1; stroke-opacity: 0.9; stroke-width: 0.6; stroke-linecap: square"/>
     </g>
     <g id="line2d_10"/>
     <g id="text_5">
      <text style="font-size: 9px; font-family: 'DejaVu Sans'; text-anchor: middle; fill: #52514e" x="242.901646" y="174.195781" transform="rotate(-0 242.901646 174.195781)">100</text>
     </g>
    </g>
    <g id="xtick_6">
     <g id="line2d_11">
      <path d="M 289.367591 163.857891 
L 289.367591 45.72 
" clip-path="url(#pb12011e50e)" style="fill: none; stroke: #e6e5e1; stroke-opacity: 0.9; stroke-width: 0.6; stroke-linecap: square"/>
     </g>
     <g id="line2d_12"/>
     <g id="text_6">
      <text style="font-size: 9px; font-family: 'DejaVu Sans'; text-anchor: middle; fill: #52514e" x="289.367591" y="174.195781" transform="rotate(-0 289.367591 174.195781)">125</text>
     </g>
    </g>
    <g id="xtick_7">
     <g id="line2d_13">
      <path d="M 335.833536 163.857891 
L 335.833536 45.72 
" clip-path="url(#pb12011e50e)" style="fill: none; stroke: #e6e5e1; stroke-opacity: 0.9; stroke-width: 0.6; stroke-linecap: square"/>
     </g>
     <g id="line2d_14"/>
     <g id="text_7">
      <text style="font-size: 9px; font-family: 'DejaVu Sans'; text-anchor: middle; fill: #52514e" x="335.833536" y="174.195781" transform="rotate(-0 335.833536 174.195781)">150</text>
     </g>
    </g>
    <g id="xtick_8">
     <g id="line2d_15">
      <path d="M 382.29948 163.857891 
L 382.29948 45.72 
" clip-path="url(#pb12011e50e)" style="fill: none; stroke: #e6e5e1; stroke-opacity: 0.9; stroke-width: 0.6; stroke-linecap: square"/>
     </g>
     <g id="line2d_16"/>
     <g id="text_8">
      <text style="font-size: 9px; font-family: 'DejaVu Sans'; text-anchor: middle; fill: #52514e" x="382.29948" y="174.195781" transform="rotate(-0 382.29948 174.195781)">175</text>
     </g>
    </g>
    <g id="text_9">
     <text style="font-size: 9px; font-family: 'DejaVu Sans'; text-anchor: middle; fill: #52514e" x="236.266364" y="187.196484" transform="rotate(-0 236.266364 187.196484)">client-observed latency per request (ms)</text>
    </g>
   </g>
   <g id="matplotlib.axis_2">
    <g id="ytick_1">
     <g id="line2d_17">
      <path d="M 49.26 163.857891 
L 423.272727 163.857891 
" clip-path="url(#pb12011e50e)" style="fill: none; stroke: #e6e5e1; stroke-opacity: 0.9; stroke-width: 0.6; stroke-linecap: square"/>
     </g>
     <g id="line2d_18"/>
     <g id="text_10">
      <text style="font-size: 9px; font-family: 'DejaVu Sans'; text-anchor: end; fill: #52514e" x="45.76" y="167.276836" transform="rotate(-0 45.76 167.276836)">0</text>
     </g>
    </g>
    <g id="ytick_2">
     <g id="line2d_19">
      <path d="M 49.26 135.272454 
L 423.272727 135.272454 
" clip-path="url(#pb12011e50e)" style="fill: none; stroke: #e6e5e1; stroke-opacity: 0.9; stroke-width: 0.6; stroke-linecap: square"/>
     </g>
     <g id="line2d_20"/>
     <g id="text_11">
      <text style="font-size: 9px; font-family: 'DejaVu Sans'; text-anchor: end; fill: #52514e" x="45.76" y="138.6914" transform="rotate(-0 45.76 138.6914)">1000</text>
     </g>
    </g>
    <g id="ytick_3">
     <g id="line2d_21">
      <path d="M 49.26 106.687018 
L 423.272727 106.687018 
" clip-path="url(#pb12011e50e)" style="fill: none; stroke: #e6e5e1; stroke-opacity: 0.9; stroke-width: 0.6; stroke-linecap: square"/>
     </g>
     <g id="line2d_22"/>
     <g id="text_12">
      <text style="font-size: 9px; font-family: 'DejaVu Sans'; text-anchor: end; fill: #52514e" x="45.76" y="110.105964" transform="rotate(-0 45.76 110.105964)">2000</text>
     </g>
    </g>
    <g id="ytick_4">
     <g id="line2d_23">
      <path d="M 49.26 78.101582 
L 423.272727 78.101582 
" clip-path="url(#pb12011e50e)" style="fill: none; stroke: #e6e5e1; stroke-opacity: 0.9; stroke-width: 0.6; stroke-linecap: square"/>
     </g>
     <g id="line2d_24"/>
     <g id="text_13">
      <text style="font-size: 9px; font-family: 'DejaVu Sans'; text-anchor: end; fill: #52514e" x="45.76" y="81.520527" transform="rotate(-0 45.76 81.520527)">3000</text>
     </g>
    </g>
    <g id="ytick_5">
     <g id="line2d_25">
      <path d="M 49.26 49.516146 
L 423.272727 49.516146 
" clip-path="url(#pb12011e50e)" style="fill: none; stroke: #e6e5e1; stroke-opacity: 0.9; stroke-width: 0.6; stroke-linecap: square"/>
     </g>
     <g id="line2d_26"/>
     <g id="text_14">
      <text style="font-size: 9px; font-family: 'DejaVu Sans'; text-anchor: end; fill: #52514e" x="45.76" y="52.935091" transform="rotate(-0 45.76 52.935091)">4000</text>
     </g>
    </g>
    <g id="text_15">
     <text style="font-size: 9px; font-family: 'DejaVu Sans'; text-anchor: middle; fill: #52514e" x="16.692891" y="104.788945" transform="rotate(-90 16.692891 104.788945)">requests</text>
    </g>
   </g>
   <g id="patch_3">
    <path d="M 66.260579 163.857891 
L 71.927438 163.857891 
L 71.927438 127.268532 
L 66.260579 127.268532 
z
" clip-path="url(#pb12011e50e)" style="fill: #2a78d6; stroke: #fcfcfb; stroke-width: 0.4; stroke-linejoin: miter"/>
   </g>
   <g id="patch_4">
    <path d="M 71.927438 163.857891 
L 77.594298 163.857891 
L 77.594298 51.345614 
L 71.927438 51.345614 
z
" clip-path="url(#pb12011e50e)" style="fill: #2a78d6; stroke: #fcfcfb; stroke-width: 0.4; stroke-linejoin: miter"/>
   </g>
   <g id="patch_5">
    <path d="M 77.594298 163.857891 
L 83.261157 163.857891 
L 83.261157 78.787633 
L 77.594298 78.787633 
z
" clip-path="url(#pb12011e50e)" style="fill: #2a78d6; stroke: #fcfcfb; stroke-width: 0.4; stroke-linejoin: miter"/>
   </g>
   <g id="patch_6">
    <path d="M 83.261157 163.857891 
L 88.928017 163.857891 
L 88.928017 127.268532 
L 83.261157 127.268532 
z
" clip-path="url(#pb12011e50e)" style="fill: #2a78d6; stroke: #fcfcfb; stroke-width: 0.4; stroke-linejoin: miter"/>
   </g>
   <g id="patch_7">
    <path d="M 88.928017 163.857891 
L 94.594876 163.857891 
L 94.594876 97.997046 
L 88.928017 97.997046 
z
" clip-path="url(#pb12011e50e)" style="fill: #2a78d6; stroke: #fcfcfb; stroke-width: 0.4; stroke-linejoin: miter"/>
   </g>
   <g id="patch_8">
    <path d="M 94.594876 163.857891 
L 100.261736 163.857891 
L 100.261736 142.81901 
L 94.594876 142.81901 
z
" clip-path="url(#pb12011e50e)" style="fill: #2a78d6; stroke: #fcfcfb; stroke-width: 0.4; stroke-linejoin: miter"/>
   </g>
   <g id="patch_9">
    <path d="M 100.261736 163.857891 
L 105.928595 163.857891 
L 105.928595 129.098 
L 100.261736 129.098 
z
" clip-path="url(#pb12011e50e)" style="fill: #2a78d6; stroke: #fcfcfb; stroke-width: 0.4; stroke-linejoin: miter"/>
   </g>
   <g id="patch_10">
    <path d="M 105.928595 163.857891 
L 111.595455 163.857891 
L 111.595455 126.668238 
L 105.928595 126.668238 
z
" clip-path="url(#pb12011e50e)" style="fill: #2a78d6; stroke: #fcfcfb; stroke-width: 0.4; stroke-linejoin: miter"/>
   </g>
   <g id="patch_11">
    <path d="M 111.595455 163.857891 
L 117.262314 163.857891 
L 117.262314 158.369487 
L 111.595455 158.369487 
z
" clip-path="url(#pb12011e50e)" style="fill: #2a78d6; stroke: #fcfcfb; stroke-width: 0.4; stroke-linejoin: miter"/>
   </g>
   <g id="patch_12">
    <path d="M 117.262314 163.857891 
L 122.929174 163.857891 
L 122.929174 149.222147 
L 117.262314 149.222147 
z
" clip-path="url(#pb12011e50e)" style="fill: #2a78d6; stroke: #fcfcfb; stroke-width: 0.4; stroke-linejoin: miter"/>
   </g>
   <g id="patch_13">
    <path d="M 122.929174 163.857891 
L 128.596033 163.857891 
L 128.596033 151.966349 
L 122.929174 151.966349 
z
" clip-path="url(#pb12011e50e)" style="fill: #2a78d6; stroke: #fcfcfb; stroke-width: 0.4; stroke-linejoin: miter"/>
   </g>
   <g id="patch_14">
    <path d="M 128.596033 163.857891 
L 134.262893 163.857891 
L 134.262893 155.625285 
L 128.596033 155.625285 
z
" clip-path="url(#pb12011e50e)" style="fill: #2a78d6; stroke: #fcfcfb; stroke-width: 0.4; stroke-linejoin: miter"/>
   </g>
   <g id="patch_15">
    <path d="M 134.262893 163.857891 
L 139.929752 163.857891 
L 139.929752 158.369487 
L 134.262893 158.369487 
z
" clip-path="url(#pb12011e50e)" style="fill: #2a78d6; stroke: #fcfcfb; stroke-width: 0.4; stroke-linejoin: miter"/>
   </g>
   <g id="patch_16">
    <path d="M 139.929752 163.857891 
L 145.596612 163.857891 
L 145.596612 157.454753 
L 139.929752 157.454753 
z
" clip-path="url(#pb12011e50e)" style="fill: #2a78d6; stroke: #fcfcfb; stroke-width: 0.4; stroke-linejoin: miter"/>
   </g>
   <g id="patch_17">
    <path d="M 145.596612 163.857891 
L 151.263471 163.857891 
L 151.263471 159.284221 
L 145.596612 159.284221 
z
" clip-path="url(#pb12011e50e)" style="fill: #2a78d6; stroke: #fcfcfb; stroke-width: 0.4; stroke-linejoin: miter"/>
   </g>
   <g id="patch_18">
    <path d="M 151.263471 163.857891 
L 156.930331 163.857891 
L 156.930331 162.028423 
L 151.263471 162.028423 
z
" clip-path="url(#pb12011e50e)" style="fill: #2a78d6; stroke: #fcfcfb; stroke-width: 0.4; stroke-linejoin: miter"/>
   </g>
   <g id="patch_19">
    <path d="M 156.930331 163.857891 
L 162.59719 163.857891 
L 162.59719 161.113689 
L 156.930331 161.113689 
z
" clip-path="url(#pb12011e50e)" style="fill: #2a78d6; stroke: #fcfcfb; stroke-width: 0.4; stroke-linejoin: miter"/>
   </g>
   <g id="patch_20">
    <path d="M 162.59719 163.857891 
L 168.26405 163.857891 
L 168.26405 157.454753 
L 162.59719 157.454753 
z
" clip-path="url(#pb12011e50e)" style="fill: #2a78d6; stroke: #fcfcfb; stroke-width: 0.4; stroke-linejoin: miter"/>
   </g>
   <g id="patch_21">
    <path d="M 168.26405 163.857891 
L 173.930909 163.857891 
L 173.930909 158.369487 
L 168.26405 158.369487 
z
" clip-path="url(#pb12011e50e)" style="fill: #2a78d6; stroke: #fcfcfb; stroke-width: 0.4; stroke-linejoin: miter"/>
   </g>
   <g id="patch_22">
    <path d="M 173.930909 163.857891 
L 179.597769 163.857891 
L 179.597769 155.625285 
L 173.930909 155.625285 
z
" clip-path="url(#pb12011e50e)" style="fill: #2a78d6; stroke: #fcfcfb; stroke-width: 0.4; stroke-linejoin: miter"/>
   </g>
   <g id="patch_23">
    <path d="M 179.597769 163.857891 
L 185.264628 163.857891 
L 185.264628 155.625285 
L 179.597769 155.625285 
z
" clip-path="url(#pb12011e50e)" style="fill: #2a78d6; stroke: #fcfcfb; stroke-width: 0.4; stroke-linejoin: miter"/>
   </g>
   <g id="patch_24">
    <path d="M 185.264628 163.857891 
L 190.931488 163.857891 
L 190.931488 161.113689 
L 185.264628 161.113689 
z
" clip-path="url(#pb12011e50e)" style="fill: #2a78d6; stroke: #fcfcfb; stroke-width: 0.4; stroke-linejoin: miter"/>
   </g>
   <g id="patch_25">
    <path d="M 190.931488 163.857891 
L 196.598347 163.857891 
L 196.598347 159.284221 
L 190.931488 159.284221 
z
" clip-path="url(#pb12011e50e)" style="fill: #2a78d6; stroke: #fcfcfb; stroke-width: 0.4; stroke-linejoin: miter"/>
   </g>
   <g id="patch_26">
    <path d="M 196.598347 163.857891 
L 202.265207 163.857891 
L 202.265207 161.113689 
L 196.598347 161.113689 
z
" clip-path="url(#pb12011e50e)" style="fill: #2a78d6; stroke: #fcfcfb; stroke-width: 0.4; stroke-linejoin: miter"/>
   </g>
   <g id="patch_27">
    <path d="M 202.265207 163.857891 
L 207.932066 163.857891 
L 207.932066 132.756936 
L 202.265207 132.756936 
z
" clip-path="url(#pb12011e50e)" style="fill: #2a78d6; stroke: #fcfcfb; stroke-width: 0.4; stroke-linejoin: miter"/>
   </g>
   <g id="patch_28">
    <path d="M 207.932066 163.857891 
L 213.598926 163.857891 
L 213.598926 162.943157 
L 207.932066 162.943157 
z
" clip-path="url(#pb12011e50e)" style="fill: #2a78d6; stroke: #fcfcfb; stroke-width: 0.4; stroke-linejoin: miter"/>
   </g>
   <g id="patch_29">
    <path d="M 213.598926 163.857891 
L 219.265785 163.857891 
L 219.265785 162.028423 
L 213.598926 162.028423 
z
" clip-path="url(#pb12011e50e)" style="fill: #2a78d6; stroke: #fcfcfb; stroke-width: 0.4; stroke-linejoin: miter"/>
   </g>
   <g id="patch_30">
    <path d="M 219.265785 163.857891 
L 224.932645 163.857891 
L 224.932645 163.857891 
L 219.265785 163.857891 
z
" clip-path="url(#pb12011e50e)" style="fill: #2a78d6; stroke: #fcfcfb; stroke-width: 0.4; stroke-linejoin: miter"/>
   </g>
   <g id="patch_31">
    <path d="M 224.932645 163.857891 
L 230.599504 163.857891 
L 230.599504 162.028423 
L 224.932645 162.028423 
z
" clip-path="url(#pb12011e50e)" style="fill: #2a78d6; stroke: #fcfcfb; stroke-width: 0.4; stroke-linejoin: miter"/>
   </g>
   <g id="patch_32">
    <path d="M 230.599504 163.857891 
L 236.266364 163.857891 
L 236.266364 163.857891 
L 230.599504 163.857891 
z
" clip-path="url(#pb12011e50e)" style="fill: #2a78d6; stroke: #fcfcfb; stroke-width: 0.4; stroke-linejoin: miter"/>
   </g>
   <g id="patch_33">
    <path d="M 236.266364 163.857891 
L 241.933223 163.857891 
L 241.933223 162.943157 
L 236.266364 162.943157 
z
" clip-path="url(#pb12011e50e)" style="fill: #2a78d6; stroke: #fcfcfb; stroke-width: 0.4; stroke-linejoin: miter"/>
   </g>
   <g id="patch_34">
    <path d="M 241.933223 163.857891 
L 247.600083 163.857891 
L 247.600083 162.028423 
L 241.933223 162.028423 
z
" clip-path="url(#pb12011e50e)" style="fill: #2a78d6; stroke: #fcfcfb; stroke-width: 0.4; stroke-linejoin: miter"/>
   </g>
   <g id="patch_35">
    <path d="M 247.600083 163.857891 
L 253.266942 163.857891 
L 253.266942 158.369487 
L 247.600083 158.369487 
z
" clip-path="url(#pb12011e50e)" style="fill: #2a78d6; stroke: #fcfcfb; stroke-width: 0.4; stroke-linejoin: miter"/>
   </g>
   <g id="patch_36">
    <path d="M 253.266942 163.857891 
L 258.933802 163.857891 
L 258.933802 160.198955 
L 253.266942 160.198955 
z
" clip-path="url(#pb12011e50e)" style="fill: #2a78d6; stroke: #fcfcfb; stroke-width: 0.4; stroke-linejoin: miter"/>
   </g>
   <g id="patch_37">
    <path d="M 258.933802 163.857891 
L 264.600661 163.857891 
L 264.600661 156.540019 
L 258.933802 156.540019 
z
" clip-path="url(#pb12011e50e)" style="fill: #2a78d6; stroke: #fcfcfb; stroke-width: 0.4; stroke-linejoin: miter"/>
   </g>
   <g id="patch_38">
    <path d="M 264.600661 163.857891 
L 270.267521 163.857891 
L 270.267521 138.24534 
L 264.600661 138.24534 
z
" clip-path="url(#pb12011e50e)" style="fill: #2a78d6; stroke: #fcfcfb; stroke-width: 0.4; stroke-linejoin: miter"/>
   </g>
   <g id="patch_39">
    <path d="M 270.267521 163.857891 
L 275.93438 163.857891 
L 275.93438 161.113689 
L 270.267521 161.113689 
z
" clip-path="url(#pb12011e50e)" style="fill: #2a78d6; stroke: #fcfcfb; stroke-width: 0.4; stroke-linejoin: miter"/>
   </g>
   <g id="patch_40">
    <path d="M 275.93438 163.857891 
L 281.60124 163.857891 
L 281.60124 158.369487 
L 275.93438 158.369487 
z
" clip-path="url(#pb12011e50e)" style="fill: #2a78d6; stroke: #fcfcfb; stroke-width: 0.4; stroke-linejoin: miter"/>
   </g>
   <g id="patch_41">
    <path d="M 281.60124 163.857891 
L 287.268099 163.857891 
L 287.268099 162.028423 
L 281.60124 162.028423 
z
" clip-path="url(#pb12011e50e)" style="fill: #2a78d6; stroke: #fcfcfb; stroke-width: 0.4; stroke-linejoin: miter"/>
   </g>
   <g id="patch_42">
    <path d="M 287.268099 163.857891 
L 292.934959 163.857891 
L 292.934959 163.857891 
L 287.268099 163.857891 
z
" clip-path="url(#pb12011e50e)" style="fill: #2a78d6; stroke: #fcfcfb; stroke-width: 0.4; stroke-linejoin: miter"/>
   </g>
   <g id="patch_43">
    <path d="M 292.934959 163.857891 
L 298.601818 163.857891 
L 298.601818 162.943157 
L 292.934959 162.943157 
z
" clip-path="url(#pb12011e50e)" style="fill: #2a78d6; stroke: #fcfcfb; stroke-width: 0.4; stroke-linejoin: miter"/>
   </g>
   <g id="patch_44">
    <path d="M 298.601818 163.857891 
L 304.268678 163.857891 
L 304.268678 162.028423 
L 298.601818 162.028423 
z
" clip-path="url(#pb12011e50e)" style="fill: #2a78d6; stroke: #fcfcfb; stroke-width: 0.4; stroke-linejoin: miter"/>
   </g>
   <g id="patch_45">
    <path d="M 304.268678 163.857891 
L 309.935537 163.857891 
L 309.935537 163.857891 
L 304.268678 163.857891 
z
" clip-path="url(#pb12011e50e)" style="fill: #2a78d6; stroke: #fcfcfb; stroke-width: 0.4; stroke-linejoin: miter"/>
   </g>
   <g id="patch_46">
    <path d="M 309.935537 163.857891 
L 315.602397 163.857891 
L 315.602397 163.857891 
L 309.935537 163.857891 
z
" clip-path="url(#pb12011e50e)" style="fill: #2a78d6; stroke: #fcfcfb; stroke-width: 0.4; stroke-linejoin: miter"/>
   </g>
   <g id="patch_47">
    <path d="M 315.602397 163.857891 
L 321.269256 163.857891 
L 321.269256 163.857891 
L 315.602397 163.857891 
z
" clip-path="url(#pb12011e50e)" style="fill: #2a78d6; stroke: #fcfcfb; stroke-width: 0.4; stroke-linejoin: miter"/>
   </g>
   <g id="patch_48">
    <path d="M 321.269256 163.857891 
L 326.936116 163.857891 
L 326.936116 163.857891 
L 321.269256 163.857891 
z
" clip-path="url(#pb12011e50e)" style="fill: #2a78d6; stroke: #fcfcfb; stroke-width: 0.4; stroke-linejoin: miter"/>
   </g>
   <g id="patch_49">
    <path d="M 326.936116 163.857891 
L 332.602975 163.857891 
L 332.602975 163.857891 
L 326.936116 163.857891 
z
" clip-path="url(#pb12011e50e)" style="fill: #2a78d6; stroke: #fcfcfb; stroke-width: 0.4; stroke-linejoin: miter"/>
   </g>
   <g id="patch_50">
    <path d="M 332.602975 163.857891 
L 338.269835 163.857891 
L 338.269835 163.857891 
L 332.602975 163.857891 
z
" clip-path="url(#pb12011e50e)" style="fill: #2a78d6; stroke: #fcfcfb; stroke-width: 0.4; stroke-linejoin: miter"/>
   </g>
   <g id="patch_51">
    <path d="M 338.269835 163.857891 
L 343.936694 163.857891 
L 343.936694 163.857891 
L 338.269835 163.857891 
z
" clip-path="url(#pb12011e50e)" style="fill: #2a78d6; stroke: #fcfcfb; stroke-width: 0.4; stroke-linejoin: miter"/>
   </g>
   <g id="patch_52">
    <path d="M 343.936694 163.857891 
L 349.603554 163.857891 
L 349.603554 163.857891 
L 343.936694 163.857891 
z
" clip-path="url(#pb12011e50e)" style="fill: #2a78d6; stroke: #fcfcfb; stroke-width: 0.4; stroke-linejoin: miter"/>
   </g>
   <g id="patch_53">
    <path d="M 349.603554 163.857891 
L 355.270413 163.857891 
L 355.270413 163.857891 
L 349.603554 163.857891 
z
" clip-path="url(#pb12011e50e)" style="fill: #2a78d6; stroke: #fcfcfb; stroke-width: 0.4; stroke-linejoin: miter"/>
   </g>
   <g id="patch_54">
    <path d="M 355.270413 163.857891 
L 360.937273 163.857891 
L 360.937273 162.943157 
L 355.270413 162.943157 
z
" clip-path="url(#pb12011e50e)" style="fill: #2a78d6; stroke: #fcfcfb; stroke-width: 0.4; stroke-linejoin: miter"/>
   </g>
   <g id="patch_55">
    <path d="M 360.937273 163.857891 
L 366.604132 163.857891 
L 366.604132 163.857891 
L 360.937273 163.857891 
z
" clip-path="url(#pb12011e50e)" style="fill: #2a78d6; stroke: #fcfcfb; stroke-width: 0.4; stroke-linejoin: miter"/>
   </g>
   <g id="patch_56">
    <path d="M 366.604132 163.857891 
L 372.270992 163.857891 
L 372.270992 163.857891 
L 366.604132 163.857891 
z
" clip-path="url(#pb12011e50e)" style="fill: #2a78d6; stroke: #fcfcfb; stroke-width: 0.4; stroke-linejoin: miter"/>
   </g>
   <g id="patch_57">
    <path d="M 372.270992 163.857891 
L 377.937851 163.857891 
L 377.937851 163.857891 
L 372.270992 163.857891 
z
" clip-path="url(#pb12011e50e)" style="fill: #2a78d6; stroke: #fcfcfb; stroke-width: 0.4; stroke-linejoin: miter"/>
   </g>
   <g id="patch_58">
    <path d="M 377.937851 163.857891 
L 383.604711 163.857891 
L 383.604711 163.857891 
L 377.937851 163.857891 
z
" clip-path="url(#pb12011e50e)" style="fill: #2a78d6; stroke: #fcfcfb; stroke-width: 0.4; stroke-linejoin: miter"/>
   </g>
   <g id="patch_59">
    <path d="M 383.604711 163.857891 
L 389.27157 163.857891 
L 389.27157 163.857891 
L 383.604711 163.857891 
z
" clip-path="url(#pb12011e50e)" style="fill: #2a78d6; stroke: #fcfcfb; stroke-width: 0.4; stroke-linejoin: miter"/>
   </g>
   <g id="patch_60">
    <path d="M 389.27157 163.857891 
L 394.93843 163.857891 
L 394.93843 162.943157 
L 389.27157 162.943157 
z
" clip-path="url(#pb12011e50e)" style="fill: #2a78d6; stroke: #fcfcfb; stroke-width: 0.4; stroke-linejoin: miter"/>
   </g>
   <g id="patch_61">
    <path d="M 394.93843 163.857891 
L 400.605289 163.857891 
L 400.605289 153.795817 
L 394.93843 153.795817 
z
" clip-path="url(#pb12011e50e)" style="fill: #2a78d6; stroke: #fcfcfb; stroke-width: 0.4; stroke-linejoin: miter"/>
   </g>
   <g id="patch_62">
    <path d="M 400.605289 163.857891 
L 406.272149 163.857891 
L 406.272149 153.795817 
L 400.605289 153.795817 
z
" clip-path="url(#pb12011e50e)" style="fill: #2a78d6; stroke: #fcfcfb; stroke-width: 0.4; stroke-linejoin: miter"/>
   </g>
   <g id="line2d_27">
    <path d="M 93.398414 163.857891 
L 93.398414 45.72 
" clip-path="url(#pb12011e50e)" style="fill: none; stroke-dasharray: 2.4,2.4; stroke-dashoffset: 0; stroke: #52514e; stroke-width: 0.8"/>
   </g>
   <g id="line2d_28">
    <path d="M 264.87727 163.857891 
L 264.87727 45.72 
" clip-path="url(#pb12011e50e)" style="fill: none; stroke-dasharray: 2.4,2.4; stroke-dashoffset: 0; stroke: #52514e; stroke-width: 0.8"/>
   </g>
   <g id="line2d_29">
    <path d="M 406.272149 163.857891 
L 406.272149 45.72 
" clip-path="url(#pb12011e50e)" style="fill: none; stroke-dasharray: 2.4,2.4; stroke-dashoffset: 0; stroke: #52514e; stroke-width: 0.8"/>
   </g>
   <g id="patch_63">
    <path d="M 49.26 163.857891 
L 423.272727 163.857891 
" style="fill: none; stroke: #e6e5e1; stroke-width: 0.8; stroke-linejoin: miter; stroke-linecap: square"/>
   </g>
   <g id="text_16">
    <text style="font-size: 7.5px; font-family: 'DejaVu Sans'; text-anchor: start; fill: #52514e" x="96.398414" y="55.72" transform="rotate(-0 96.398414 55.72)">p50 20 ms</text>
   </g>
   <g id="text_17">
    <text style="font-size: 7.5px; font-family: 'DejaVu Sans'; text-anchor: start; fill: #52514e" x="267.87727" y="55.72" transform="rotate(-0 267.87727 55.72)">p90 112 ms</text>
   </g>
   <g id="text_18">
    <text style="font-size: 7.5px; font-family: 'DejaVu Sans'; text-anchor: start; fill: #52514e" x="409.272149" y="55.72" transform="rotate(-0 409.272149 55.72)">p99 188 ms</text>
   </g>
  </g>
  <g id="text_19">
   <text style="font-weight: 600; font-size: 11px; font-family: 'DejaVu Sans'; fill: #0b0b0b" transform="translate(5.5296 15.902344)">Qwen3.5-2B (Tier 0): latency over 22,773 requests, one</text>
   <text style="font-weight: 600; font-size: 11px; font-family: 'DejaVu Sans'; fill: #0b0b0b" transform="translate(5.5296 30.245313)">question each</text>
  </g>
  <g id="text_20">
   <text style="font-size: 8.2px; font-family: 'DejaVu Sans'; fill: #52514e" transform="translate(5.5296 41.637687)">Measured from a 2-core sandbox in us-east at concurrency 4; includes network. Top 1% trimmed</text>
   <text style="font-size: 8.2px; font-family: 'DejaVu Sans'; fill: #52514e" transform="translate(5.5296 52.707688)">for display.</text>
  </g>
  <g id="text_21">
   <text style="font-size: 7px; font-family: 'DejaVu Sans'; text-anchor: start; fill: #52514e" x="5.5296" y="209.998359" transform="rotate(-0 5.5296 209.998359)">Qwen3.5-2B (Tier 0) · jev-bench v0.1.1 · 2026-09-21</text>
  </g>
 </g>
 <defs>
  <clipPath id="pb12011e50e">
   <rect x="49.26" y="45.72" width="374.012727" height="118.137891"/>
  </clipPath>
 </defs>
</svg>
